<svg width="512" height="512" viewBox="0 0 512 512" xmlns="http://www.w3.org/2000/svg">
  <!-- Background -->
  <rect width="512" height="512" fill="none" />

  <!-- Main shapes -->
  <g transform="translate(56, 56) scale(0.78)">
    <!-- Blue background -->
    <rect x="0" y="0" width="512" height="512" fill="#1d428a" rx="20" />

    <!-- Player silhouette -->
    <g fill="white">
      <!-- Ball -->
      <circle cx="330" cy="140" r="40" />

      <!-- Player -->
      <path
        d="
        M 180,450
        L 280,450
        L 320,380
        C 380,320 380,220 330,140
        C 320,120 300,110 280,110
        C 260,110 240,120 230,140
        L 180,220
        L 130,140
        C 120,120 100,110 80,110
        C 60,110 40,120 30,140
        C -20,220 -20,320 40,380
        L 180,450
        Z"
      />
    </g>
  </g>
</svg>